<svg version="1.1" viewBox="0 0 24 24" xmlns="http://www.w3.org/2000/svg">
	<g stroke-linejoin="round">
		<rect x="1.5" y="1.5" width="21" height="21" ry="4.0269" fill="#dddbd5" stroke="#dddbd5" stroke-linecap="round" style="paint-order:stroke fill markers"/>
		<g transform="translate(-6.7722 .63919)" stroke-linecap="square">
			<path d="m13.772 19.861v-15h7c3 0 4 3 4 5s-1 5-4 5h-4v5l-3 5e-6" fill="#38362e" stop-color="#000000" stroke="#2a2922" stroke-linecap="round" style="font-variation-settings:normal"/>
			<path d="m14.772 18.861v-15h7c3 0 4 3 4 5s-1 5-4 5h-4v5l-3 5e-6" fill="none" stop-color="#000000" stroke="#dddbd5" style="font-variation-settings:normal"/>
			<path d="m15.772 17.861v-15h7c3 0 4 3 4 5s-1 5-4 5h-4v5l-3 5e-6" fill="#2a2922" stop-color="#000000" stroke="#2a2922" style="font-variation-settings:normal"/>
		</g>
		<path d="m15.8 10c0.69991 0 0.69991-0.74999 0.69991-1.5 0-0.74999 0-1.5-0.69991-1.5h-2.7996v3h2.7996" fill="#dddbd5" stop-color="#000000" stroke="#dddbd5" stroke-linecap="round" style="font-variation-settings:normal"/>
	</g>
</svg>
